<svg version="1.1" xmlns="http://www.w3.org/2000/svg" xmlns:xlink="http://www.w3.org/1999/xlink" width="508" height="404"><defs><linearGradient id="BDEXKRgWsfoD" x1="0px" x2="32px" y1="0px" y2="0px" gradientUnits="userSpaceOnUse"><stop offset="0" stop-color="#0110fc"/><stop offset="1" stop-color="#1012f3"/></linearGradient><linearGradient id="TdZKOgXIDUne" x1="0px" x2="31.622776601683793px" y1="0px" y2="0px" gradientUnits="userSpaceOnUse"><stop offset="0" stop-color="#c43581"/><stop offset="1" stop-color="#2d18e0"/></linearGradient><linearGradient id="FbiXBTTfKxKT" x1="0px" x2="31.240998703626616px" y1="0px" y2="0px" gradientUnits="userSpaceOnUse"><stop offset="0" stop-color="#0110fc"/><stop offset="1" stop-color="#2d18e0"/></linearGradient><linearGradient id="DVTFMrhaDeEs" x1="0px" x2="32px" y1="0px" y2="0px" gradientUnits="userSpaceOnUse"><stop offset="0" stop-color="#6b24b9"/><stop offset="1" stop-color="#c43581"/></linearGradient><linearGradient id="TZHvNoqTWHrJ" x1="0px" x2="32px" y1="0px" y2="0px" gradientUnits="userSpaceOnUse"><stop offset="0" stop-color="#0312fa"/><stop offset="1" stop-color="#c7367f"/></linearGradient><linearGradient id="AKAaHnBATgKt" x1="0px" x2="32px" y1="0px" y2="0px" gradientUnits="userSpaceOnUse"><stop offset="0" stop-color="#c7367f"/><stop offset="1" stop-color="#0312fa"/></linearGradient><linearGradient id="ePIlhzXcslsm" x1="0px" x2="32px" y1="0px" y2="0px" gradientUnits="userSpaceOnUse"><stop offset="0" stop-color="#0312fa"/><stop offset="1" stop-color="#c7367f"/></linearGradient><linearGradient id="FgcTJBnTnhUb" x1="0px" x2="32.31098884280702px" y1="0px" y2="0px" gradientUnits="userSpaceOnUse"><stop offset="0" stop-color="#0312fa"/><stop offset="1" stop-color="#0110fc"/></linearGradient></defs><g transform="scale(1,1) translate(-74,-62)"><path fill="none" stroke="#0110fc" paint-order="fill stroke markers" d=" M 208 224 L 174 224" stroke-linecap="round" stroke-miterlimit="10" stroke-width="3" stroke-dasharray=""/><g><text fill="#000000" stroke="none" font-family="sans-serif" font-size="10px" font-style="normal" font-weight="normal" text-decoration="normal" x="142" y="224" text-anchor="start" dominant-baseline="central">No file</text></g><path fill="none" stroke="#c43581" paint-order="fill stroke markers" d=" M 320 112 L 289 112" stroke-linecap="round" stroke-miterlimit="10" stroke-width="3" stroke-dasharray=""/><g><text fill="#000000" stroke="none" font-family="sans-serif" font-size="10px" font-style="normal" font-weight="normal" text-decoration="normal" x="267" y="112" text-anchor="start" dominant-baseline="central">+4V</text></g><path fill="none" stroke="#2d18e0" paint-order="fill stroke markers" d=" M 240 224 L 228 224" stroke-linecap="round" stroke-miterlimit="10" stroke-width="3" stroke-dasharray=""/><path fill="none" stroke="#2d18e0" paint-order="fill stroke markers" d=" M 228 236 L 228 212" stroke-linecap="round" stroke-miterlimit="10" stroke-width="3" stroke-dasharray=""/><path fill="none" stroke="#0110fc" paint-order="fill stroke markers" d=" M 208 224 L 220 224" stroke-linecap="round" stroke-miterlimit="10" stroke-width="3" stroke-dasharray=""/><path fill="none" stroke="#0110fc" paint-order="fill stroke markers" d=" M 220 236 L 220 212" stroke-linecap="round" stroke-miterlimit="10" stroke-width="3" stroke-dasharray=""/><text fill="#000000" stroke="none" font-family="sans-serif" font-size="12px" font-style="normal" font-weight="normal" text-decoration="normal" x="207" y="210" text-anchor="start" dominant-baseline="alphabetic">100μF</text><path fill="none" stroke="#0110fc" paint-order="fill stroke markers" d=" M 320 320 L 320 296" stroke-linecap="round" stroke-miterlimit="10" stroke-width="3" stroke-dasharray=""/><path fill="none" stroke="#1012f3" paint-order="fill stroke markers" d=" M 320 264 L 320 240" stroke-linecap="round" stroke-miterlimit="10" stroke-width="3" stroke-dasharray=""/><g transform="matrix(0,-1,1,0,320,296)"><path fill="none" stroke="url(#BDEXKRgWsfoD)" paint-order="fill stroke markers" d=" M 0 0 L 2 6 L 6 -6 L 10 6 L 14 -6 L 18 6 L 22 -6 L 26 6 L 30 -6 L 32 0" stroke-linecap="round" stroke-miterlimit="10" stroke-width="3" stroke-dasharray=""/></g><text fill="#000000" stroke="none" font-family="sans-serif" font-size="12px" font-style="normal" font-weight="normal" text-decoration="normal" x="330" y="286" text-anchor="start" dominant-baseline="alphabetic">405</text><path fill="none" stroke="#c43581" paint-order="fill stroke markers" d=" M 320 112 L 289 155" stroke-linecap="round" stroke-miterlimit="10" stroke-width="3" stroke-dasharray=""/><path fill="none" stroke="#2d18e0" paint-order="fill stroke markers" d=" M 271 181 L 240 224" stroke-linecap="round" stroke-miterlimit="10" stroke-width="3" stroke-dasharray=""/><g transform="matrix(-0.5692099788303083,0.8221921916437787,-0.8221921916437787,-0.5692099788303083,289,155)"><path fill="none" stroke="url(#TdZKOgXIDUne)" paint-order="fill stroke markers" d=" M 0 0 L 1.976423537605237 6 L 5.929270612815711 -6 L 9.882117688026185 6 L 13.834964763236659 -6 L 17.787811838447134 6 L 21.740658913657608 -6 L 25.693505988868083 6 L 29.646353064078557 -6 L 31.622776601683793 0" stroke-linecap="round" stroke-miterlimit="10" stroke-width="3" stroke-dasharray=""/></g><text fill="#000000" stroke="none" font-family="sans-serif" font-size="12px" font-style="normal" font-weight="normal" text-decoration="normal" x="288" y="178" text-anchor="start" dominant-baseline="alphabetic">32k</text><path fill="none" stroke="#0110fc" paint-order="fill stroke markers" d=" M 320 320 L 290 284" stroke-linecap="round" stroke-miterlimit="10" stroke-width="3" stroke-dasharray=""/><path fill="none" stroke="#2d18e0" paint-order="fill stroke markers" d=" M 270 260 L 240 224" stroke-linecap="round" stroke-miterlimit="10" stroke-width="3" stroke-dasharray=""/><g transform="matrix(-0.6401843996644799,-0.7682212795973759,0.7682212795973759,-0.6401843996644799,290,284)"><path fill="none" stroke="url(#FbiXBTTfKxKT)" paint-order="fill stroke markers" d=" M 0 0 L 1.9525624189766635 6 L 5.8576872569299905 -6 L 9.762812094883317 6 L 13.667936932836644 -6 L 17.57306177078997 6 L 21.4781866087433 -6 L 25.383311446696624 6 L 29.288436284649954 -6 L 31.240998703626616 0" stroke-linecap="round" stroke-miterlimit="10" stroke-width="3" stroke-dasharray=""/></g><text fill="#000000" stroke="none" font-family="sans-serif" font-size="12px" font-style="normal" font-weight="normal" text-decoration="normal" x="288" y="283" text-anchor="start" dominant-baseline="alphabetic">11k</text><path fill="none" stroke="#6b24b9" paint-order="fill stroke markers" d=" M 320 208 L 320 176" stroke-linecap="round" stroke-miterlimit="10" stroke-width="3" stroke-dasharray=""/><path fill="none" stroke="#c43581" paint-order="fill stroke markers" d=" M 320 144 L 320 112" stroke-linecap="round" stroke-miterlimit="10" stroke-width="3" stroke-dasharray=""/><g transform="matrix(0,-1,1,0,320,176)"><path fill="none" stroke="url(#DVTFMrhaDeEs)" paint-order="fill stroke markers" d=" M 0 0 L 2 6 L 6 -6 L 10 6 L 14 -6 L 18 6 L 22 -6 L 26 6 L 30 -6 L 32 0" stroke-linecap="round" stroke-miterlimit="10" stroke-width="3" stroke-dasharray=""/></g><text fill="#000000" stroke="none" font-family="sans-serif" font-size="12px" font-style="normal" font-weight="normal" text-decoration="normal" x="330" y="166" text-anchor="start" dominant-baseline="alphabetic">2k</text><path fill="none" stroke="#6b24b9" paint-order="fill stroke markers" d=" M 320 208 L 307 218" stroke-linecap="round" stroke-miterlimit="10" stroke-width="3" stroke-dasharray=""/><path fill="none" stroke="#1012f3" paint-order="fill stroke markers" d=" M 320 240 L 307 230" stroke-linecap="round" stroke-miterlimit="10" stroke-width="3" stroke-dasharray=""/><path fill="#000000" stroke="none" paint-order="stroke fill markers" d=" M 320 240 L 316 232 L 311 238 Z"/><path fill="none" stroke="#2d18e0" paint-order="fill stroke markers" d=" M 240 224 L 304 224" stroke-linecap="round" stroke-miterlimit="10" stroke-width="3" stroke-dasharray=""/><path fill="#2d18e0" stroke="none" paint-order="stroke fill markers" d=" M 304 208 L 307 208 L 307 240 L 304 240 Z"/><path fill="none" stroke="#0312fa" paint-order="fill stroke markers" d=" M 144 336 L 160 336" stroke-linecap="round" stroke-miterlimit="10" stroke-width="3" stroke-dasharray=""/><path fill="none" stroke="#c7367f" paint-order="fill stroke markers" d=" M 192 336 L 208 336" stroke-linecap="round" stroke-miterlimit="10" stroke-width="3" stroke-dasharray=""/><g transform="matrix(1,0,0,1,160,336)"><path fill="none" stroke="url(#TZHvNoqTWHrJ)" paint-order="fill stroke markers" d=" M 0 0 L 2 6 L 6 -6 L 10 6 L 14 -6 L 18 6 L 22 -6 L 26 6 L 30 -6 L 32 0" stroke-linecap="round" stroke-miterlimit="10" stroke-width="3" stroke-dasharray=""/></g><text fill="#000000" stroke="none" font-family="sans-serif" font-size="12px" font-style="normal" font-weight="normal" text-decoration="normal" x="165" y="326" text-anchor="start" dominant-baseline="alphabetic">5.6k</text><path fill="none" stroke="#c7367f" paint-order="fill stroke markers" d=" M 208 368 L 192 368" stroke-linecap="round" stroke-miterlimit="10" stroke-width="3" stroke-dasharray=""/><path fill="none" stroke="#0312fa" paint-order="fill stroke markers" d=" M 160 368 L 144 368" stroke-linecap="round" stroke-miterlimit="10" stroke-width="3" stroke-dasharray=""/><g transform="matrix(-1,0,0,-1,192,368)"><path fill="none" stroke="url(#AKAaHnBATgKt)" paint-order="fill stroke markers" d=" M 0 0 L 2 6 L 6 -6 L 10 6 L 14 -6 L 18 6 L 22 -6 L 26 6 L 30 -6 L 32 0" stroke-linecap="round" stroke-miterlimit="10" stroke-width="3" stroke-dasharray=""/></g><text fill="#000000" stroke="none" font-family="sans-serif" font-size="12px" font-style="normal" font-weight="normal" text-decoration="normal" x="166" y="358" text-anchor="start" dominant-baseline="alphabetic">560</text><path fill="none" stroke="#0312fa" paint-order="fill stroke markers" d=" M 144 336 L 144 368" stroke-linecap="round" stroke-miterlimit="10" stroke-width="3" stroke-dasharray=""/><text fill="#000000" stroke="none" font-family="sans-serif" font-size="12px" font-style="normal" font-weight="normal" text-decoration="normal" x="150" y="358" text-anchor="start" dominant-baseline="alphabetic"></text><path fill="none" stroke="#c7367f" paint-order="fill stroke markers" d=" M 208 336 L 208 368" stroke-linecap="round" stroke-miterlimit="10" stroke-width="3" stroke-dasharray=""/><text fill="#000000" stroke="none" font-family="sans-serif" font-size="12px" font-style="normal" font-weight="normal" text-decoration="normal" x="214" y="358" text-anchor="start" dominant-baseline="alphabetic"></text><path fill="none" stroke="#0312fa" paint-order="fill stroke markers" d=" M 144 368 L 144 416" stroke-linecap="round" stroke-miterlimit="10" stroke-width="3" stroke-dasharray=""/><text fill="#000000" stroke="none" font-family="sans-serif" font-size="12px" font-style="normal" font-weight="normal" text-decoration="normal" x="150" y="398" text-anchor="start" dominant-baseline="alphabetic"></text><path fill="none" stroke="#c7367f" paint-order="fill stroke markers" d=" M 208 368 L 208 416" stroke-linecap="round" stroke-miterlimit="10" stroke-width="3" stroke-dasharray=""/><text fill="#000000" stroke="none" font-family="sans-serif" font-size="12px" font-style="normal" font-weight="normal" text-decoration="normal" x="214" y="398" text-anchor="start" dominant-baseline="alphabetic"></text><path fill="none" stroke="#0312fa" paint-order="fill stroke markers" d=" M 144 336 L 144 304" stroke-linecap="round" stroke-miterlimit="10" stroke-width="3" stroke-dasharray=""/><text fill="#000000" stroke="none" font-family="sans-serif" font-size="12px" font-style="normal" font-weight="normal" text-decoration="normal" x="150" y="326" text-anchor="start" dominant-baseline="alphabetic"></text><path fill="none" stroke="#c7367f" paint-order="fill stroke markers" d=" M 208 336 L 208 304" stroke-linecap="round" stroke-miterlimit="10" stroke-width="3" stroke-dasharray=""/><text fill="#000000" stroke="none" font-family="sans-serif" font-size="12px" font-style="normal" font-weight="normal" text-decoration="normal" x="214" y="326" text-anchor="start" dominant-baseline="alphabetic"></text><path fill="none" stroke="#0312fa" paint-order="fill stroke markers" d=" M 144 304 L 163 304" stroke-linecap="round" stroke-miterlimit="10" stroke-width="3" stroke-dasharray=""/><path fill="none" stroke="#c7367f" paint-order="fill stroke markers" d=" M 189 304 L 208 304" stroke-linecap="round" stroke-miterlimit="10" stroke-width="3" stroke-dasharray=""/><path fill="none" stroke="#6122bf" paint-order="fill stroke markers" d=" M 187.76 304 A 11.76 11.76 0 1 1 187.7599941200005 303.98824000196" stroke-linecap="round" stroke-miterlimit="10" stroke-width="3" stroke-dasharray=""/><g><text fill="#6122bf" stroke="none" font-family="sans-serif" font-size="12px" font-style="normal" font-weight="normal" text-decoration="normal" x="176" y="304" text-anchor="middle" dominant-baseline="central">Ω</text></g><text fill="#000000" stroke="none" font-family="sans-serif" font-size="12px" font-style="normal" font-weight="normal" text-decoration="normal" x="157" y="290" text-anchor="start" dominant-baseline="alphabetic">405.8Ω</text><path fill="none" stroke="#0312fa" paint-order="fill stroke markers" d=" M 144 416 L 160 416" stroke-linecap="round" stroke-miterlimit="10" stroke-width="3" stroke-dasharray=""/><path fill="none" stroke="#c7367f" paint-order="fill stroke markers" d=" M 192 416 L 208 416" stroke-linecap="round" stroke-miterlimit="10" stroke-width="3" stroke-dasharray=""/><g transform="matrix(1,0,0,1,160,416)"><path fill="none" stroke="url(#ePIlhzXcslsm)" paint-order="fill stroke markers" d=" M 0 0 L 2 6 L 6 -6 L 10 6 L 14 -6 L 18 6 L 22 -6 L 26 6 L 30 -6 L 32 0" stroke-linecap="round" stroke-miterlimit="10" stroke-width="3" stroke-dasharray=""/></g><text fill="#000000" stroke="none" font-family="sans-serif" font-size="12px" font-style="normal" font-weight="normal" text-decoration="normal" x="170" y="406" text-anchor="start" dominant-baseline="alphabetic">2k</text><path fill="none" stroke="#0110fc" paint-order="fill stroke markers" d=" M 320 320 L 320 352" stroke-linecap="round" stroke-miterlimit="10" stroke-width="3" stroke-dasharray=""/><path fill="none" stroke="#0110fc" paint-order="fill stroke markers" d=" M 330 352 L 310 352" stroke-linecap="round" stroke-miterlimit="10" stroke-width="3" stroke-dasharray=""/><path fill="none" stroke="#0110fc" paint-order="fill stroke markers" d=" M 326 357 L 314 357" stroke-linecap="round" stroke-miterlimit="10" stroke-width="3" stroke-dasharray=""/><path fill="none" stroke="#0110fc" paint-order="fill stroke markers" d=" M 322 362 L 318 362" stroke-linecap="round" stroke-miterlimit="10" stroke-width="3" stroke-dasharray=""/><path fill="none" stroke="#6b24b9" paint-order="fill stroke markers" d=" M 320 208 L 380 208" stroke-linecap="round" stroke-miterlimit="10" stroke-width="3" stroke-dasharray=""/><path fill="none" stroke="#6b24b9" paint-order="fill stroke markers" d=" M 380 196 L 380 220" stroke-linecap="round" stroke-miterlimit="10" stroke-width="3" stroke-dasharray=""/><path fill="none" stroke="#0312fa" paint-order="fill stroke markers" d=" M 448 208 L 388 208" stroke-linecap="round" stroke-miterlimit="10" stroke-width="3" stroke-dasharray=""/><path fill="none" stroke="#0312fa" paint-order="fill stroke markers" d=" M 388 196 L 388 220" stroke-linecap="round" stroke-miterlimit="10" stroke-width="3" stroke-dasharray=""/><text fill="#000000" stroke="none" font-family="sans-serif" font-size="12px" font-style="normal" font-weight="normal" text-decoration="normal" x="370" y="194" text-anchor="start" dominant-baseline="alphabetic">10μF</text><path fill="none" stroke="#1012f3" paint-order="fill stroke markers" d=" M 320 240 L 340 240" stroke-linecap="round" stroke-miterlimit="10" stroke-width="3" stroke-dasharray=""/><path fill="none" stroke="#1012f3" paint-order="fill stroke markers" d=" M 340 228 L 340 252" stroke-linecap="round" stroke-miterlimit="10" stroke-width="3" stroke-dasharray=""/><path fill="none" stroke="#0110fc" paint-order="fill stroke markers" d=" M 368 240 L 348 240" stroke-linecap="round" stroke-miterlimit="10" stroke-width="3" stroke-dasharray=""/><path fill="none" stroke="#0110fc" paint-order="fill stroke markers" d=" M 348 228 L 348 252" stroke-linecap="round" stroke-miterlimit="10" stroke-width="3" stroke-dasharray=""/><text fill="#000000" stroke="none" font-family="sans-serif" font-size="12px" font-style="normal" font-weight="normal" text-decoration="normal" x="330" y="226" text-anchor="start" dominant-baseline="alphabetic">10μF</text><path fill="none" stroke="#0312fa" paint-order="fill stroke markers" d=" M 448 208 L 423 218" stroke-linecap="round" stroke-miterlimit="10" stroke-width="3" stroke-dasharray=""/><path fill="none" stroke="#0110fc" paint-order="fill stroke markers" d=" M 393 230 L 368 240" stroke-linecap="round" stroke-miterlimit="10" stroke-width="3" stroke-dasharray=""/><g transform="matrix(-0.9284766908852594,0.3713906763541038,-0.3713906763541038,-0.9284766908852594,423,218)"><path fill="none" stroke="url(#FgcTJBnTnhUb)" paint-order="fill stroke markers" d=" M 0 0 L 2.019436802675439 6 L 6.058310408026316 -6 L 10.097184013377195 6 L 14.13605761872807 -6 L 18.17493122407895 6 L 22.213804829429826 -6 L 26.252678434780705 6 L 30.29155204013158 -6 L 32.31098884280702 0" stroke-linecap="round" stroke-miterlimit="10" stroke-width="3" stroke-dasharray=""/></g><text fill="#000000" stroke="none" font-family="sans-serif" font-size="12px" font-style="normal" font-weight="normal" text-decoration="normal" x="412" y="237" text-anchor="start" dominant-baseline="alphabetic">100k</text><path fill="none" stroke="#0110fc" paint-order="fill stroke markers" d=" M 368 240 L 368 272" stroke-linecap="round" stroke-miterlimit="10" stroke-width="3" stroke-dasharray=""/><path fill="none" stroke="#0110fc" paint-order="fill stroke markers" d=" M 378 272 L 358 272" stroke-linecap="round" stroke-miterlimit="10" stroke-width="3" stroke-dasharray=""/><path fill="none" stroke="#0110fc" paint-order="fill stroke markers" d=" M 374 277 L 362 277" stroke-linecap="round" stroke-miterlimit="10" stroke-width="3" stroke-dasharray=""/><path fill="none" stroke="#0110fc" paint-order="fill stroke markers" d=" M 370 282 L 366 282" stroke-linecap="round" stroke-miterlimit="10" stroke-width="3" stroke-dasharray=""/><g><rect fill="#404040" stroke="none" x="481" y="198" width="62" height="20"/><g><text fill="#000000" stroke="none" font-family="sans-serif" font-size="14px" font-style="normal" font-weight="normal" text-decoration="normal" x="512" y="208" text-anchor="middle" dominant-baseline="central">Audio Out</text></g><path fill="none" stroke="#0312fa" paint-order="fill stroke markers" d=" M 448 208 L 473 208" stroke-linecap="round" stroke-miterlimit="10" stroke-width="3" stroke-dasharray=""/></g><path fill="#000000" stroke="none" paint-order="stroke fill markers" d=" M 323 112 A 3 3 0 1 1 322.99973922528994 111.96044522459944 Z"/><path fill="#000000" stroke="none" paint-order="stroke fill markers" d=" M 243 224 A 3 3 0 1 1 242.99973922528991 223.96044522459943 Z"/><path fill="#000000" stroke="none" paint-order="stroke fill markers" d=" M 323 320 A 3 3 0 1 1 322.99973922528994 319.9604452245994 Z"/><path fill="#000000" stroke="none" paint-order="stroke fill markers" d=" M 323 240 A 3 3 0 1 1 322.99973922528994 239.96044522459943 Z"/><path fill="#000000" stroke="none" paint-order="stroke fill markers" d=" M 323 208 A 3 3 0 1 1 322.99973922528994 207.96044522459943 Z"/><path fill="#000000" stroke="none" paint-order="stroke fill markers" d=" M 147 336 A 3 3 0 1 1 146.99973922528991 335.9604452245994 Z"/><path fill="#000000" stroke="none" paint-order="stroke fill markers" d=" M 211 336 A 3 3 0 1 1 210.99973922528991 335.9604452245994 Z"/><path fill="#000000" stroke="none" paint-order="stroke fill markers" d=" M 211 368 A 3 3 0 1 1 210.99973922528991 367.9604452245994 Z"/><path fill="#000000" stroke="none" paint-order="stroke fill markers" d=" M 147 368 A 3 3 0 1 1 146.99973922528991 367.9604452245994 Z"/><path fill="#000000" stroke="none" paint-order="stroke fill markers" d=" M 451 208 A 3 3 0 1 1 450.99973922528994 207.96044522459943 Z"/><path fill="#000000" stroke="none" paint-order="stroke fill markers" d=" M 371 240 A 3 3 0 1 1 370.99973922528994 239.96044522459943 Z"/></g></svg>